<svg xmlns="http://www.w3.org/2000/svg" width="13.629" height="13.629" viewBox="0 0 13.629 13.629">
  <g id="Group_4179" data-name="Group 4179" transform="translate(-33.185 -339.152)">
    <g id="Group_4177" data-name="Group 4177">
      <path id="ic_call_24px" d="M5.741,8.9a11.47,11.47,0,0,0,4.99,4.99L12.4,12.223a.753.753,0,0,1,.772-.182,8.637,8.637,0,0,0,2.7.432.759.759,0,0,1,.757.757v2.643a.759.759,0,0,1-.757.757A12.871,12.871,0,0,1,3,3.757.759.759,0,0,1,3.757,3h2.65a.759.759,0,0,1,.757.757A8.6,8.6,0,0,0,7.6,6.46a.76.76,0,0,1-.189.772Z" transform="translate(30.185 336.152)" fill="#f94545"/>
    </g>
  </g>
</svg>
