<svg xmlns="http://www.w3.org/2000/svg" width="14.477" height="16.525" viewBox="0 0 14.477 16.525">
  <g id="noun_notification_2184935" transform="translate(-23.5 -21)">
    <g id="Group_2507" data-name="Group 2507" transform="translate(23.5 21)">
      <g id="Group_2506" data-name="Group 2506">
        <path id="Path_1232" data-name="Path 1232" d="M30.738,21a2.185,2.185,0,0,1,2.183,2.08,5.6,5.6,0,0,1,3.417,5.158v3.147A1.775,1.775,0,0,1,36.2,34.93H25.278a1.775,1.775,0,0,1-.139-3.546V28.238a5.6,5.6,0,0,1,3.417-5.158A2.185,2.185,0,0,1,30.738,21Zm-1.294,3.206a4.234,4.234,0,0,0-2.94,4.032v3.277a1.23,1.23,0,0,1-1.229,1.23.41.41,0,1,0,0,.819H36.2a.41.41,0,1,0,0-.819,1.228,1.228,0,0,1-1.229-1.23V28.238a4.235,4.235,0,0,0-2.94-4.032l-.474-.152v-.871a.819.819,0,0,0-1.639,0v.871Zm-1.3,10.725h1.366a1.229,1.229,0,1,0,2.458,0h1.366a2.595,2.595,0,0,1-5.19,0Z" transform="translate(-23.5 -21)" fill="#141414"/>
      </g>
    </g>
  </g>
</svg>
