<svg id="Group_2522" data-name="Group 2522" xmlns="http://www.w3.org/2000/svg" width="19.01" height="19" viewBox="0 0 19.01 19">
  <path id="Path_1243" data-name="Path 1243" d="M20.779,10.208a1.06,1.06,0,0,1-.26-1.021,2.559,2.559,0,0,0-1.8-3.123,1.055,1.055,0,0,1-.741-.761,2.549,2.549,0,0,0-3.123-1.8,1.036,1.036,0,0,1-1.021-.28,2.613,2.613,0,0,0-3.6,0,1.06,1.06,0,0,1-1.021.26,2.549,2.549,0,0,0-3.123,1.8,1.055,1.055,0,0,1-.761.741,2.58,2.58,0,0,0-1.8,3.143,1.036,1.036,0,0,1-.28,1.021,2.562,2.562,0,0,0,0,3.6,1.06,1.06,0,0,1,.26,1.021,2.48,2.48,0,0,0,.26,1.922A2.548,2.548,0,0,0,5.3,17.916a1.055,1.055,0,0,1,.741.761,2.549,2.549,0,0,0,1.181,1.542,2.492,2.492,0,0,0,1.922.26,1.024,1.024,0,0,1,1.021.28,2.562,2.562,0,0,0,3.6,0,1.06,1.06,0,0,1,1.021-.26,2.48,2.48,0,0,0,1.922-.26A2.549,2.549,0,0,0,17.9,18.7a1.055,1.055,0,0,1,.761-.741A2.549,2.549,0,0,0,20.2,16.775a2.582,2.582,0,0,0,.26-1.922,1.024,1.024,0,0,1,.28-1.021h0A2.562,2.562,0,0,0,20.779,10.208Zm-1.061,2.543h0a2.57,2.57,0,0,0-.661,2.463,1.013,1.013,0,0,1-.1.8,1.077,1.077,0,0,1-.641.5,2.559,2.559,0,0,0-1.8,1.8,1.047,1.047,0,0,1-.481.641,1.013,1.013,0,0,1-.8.1,2.544,2.544,0,0,0-2.463.661,1.089,1.089,0,0,1-1.5,0,2.563,2.563,0,0,0-1.8-.741,2.487,2.487,0,0,0-.661.08,1.013,1.013,0,0,1-.8-.1,1.077,1.077,0,0,1-.5-.641,2.559,2.559,0,0,0-1.8-1.8,1.047,1.047,0,0,1-.641-.481,1.013,1.013,0,0,1-.1-.8A2.544,2.544,0,0,0,4.3,12.771,1.028,1.028,0,0,1,4,12.03a1.046,1.046,0,0,1,.32-.761,2.544,2.544,0,0,0,.661-2.463,1.044,1.044,0,0,1,.761-1.281,2.559,2.559,0,0,0,1.8-1.8,1.052,1.052,0,0,1,1.3-.741,2.544,2.544,0,0,0,2.463-.661,1.089,1.089,0,0,1,1.5,0,2.544,2.544,0,0,0,2.463.661,1.044,1.044,0,0,1,1.281.761,2.559,2.559,0,0,0,1.8,1.8,1.052,1.052,0,0,1,.741,1.3,2.544,2.544,0,0,0,.661,2.463A1.016,1.016,0,0,1,19.718,12.751Z" transform="translate(-2.5 -2.5)" fill="#c3c3c3"/>
  <path id="Path_1244" data-name="Path 1244" d="M40.007,33.9a.737.737,0,0,0-1.061,0L33.9,38.946a.738.738,0,0,0,0,1.061.774.774,0,0,0,.541.22.811.811,0,0,0,.541-.22l5.045-5.045A.756.756,0,0,0,40.007,33.9Z" transform="translate(-27.433 -27.433)" fill="#c3c3c3"/>
  <ellipse id="Ellipse_49" data-name="Ellipse 49" cx="1.221" cy="1.221" rx="1.221" ry="1.221" transform="translate(5.946 5.946)" fill="#c3c3c3"/>
  <ellipse id="Ellipse_50" data-name="Ellipse 50" cx="1.221" cy="1.221" rx="1.221" ry="1.221" transform="translate(10.651 10.651)" fill="#c3c3c3"/>
</svg>
