<svg id="Group_2735" data-name="Group 2735" xmlns="http://www.w3.org/2000/svg" width="29" height="29" viewBox="0 0 29 29">
  <g id="Group_2731" data-name="Group 2731">
    <circle id="Ellipse_92" data-name="Ellipse 92" cx="14.5" cy="14.5" r="14.5" fill="#341557" opacity="0.59"/>
  </g>
  <g id="share_2_" data-name="share (2)" transform="translate(7 8)">
    <g id="Group_2732" data-name="Group 2732" transform="translate(3.589 2.836)">
      <path id="Path_1935" data-name="Path 1935" d="M162.5,118.627l-.377-.633,4.218-2.534.377.633Z" transform="translate(-162.118 -115.459)" fill="#fff"/>
      <path id="Path_1936" data-name="Path 1936" d="M170.855,292.968l-4.064-2.077.332-.658,4.064,2.077Z" transform="translate(-166.676 -285.94)" fill="#fff"/>
    </g>
    <g id="Group_2733" data-name="Group 2733">
      <path id="Path_1937" data-name="Path 1937" d="M318.21,0a2.21,2.21,0,1,0,2.21,2.21A2.217,2.217,0,0,0,318.21,0Z" transform="translate(-308.632)" fill="#fff"/>
      <path id="Path_1938" data-name="Path 1938" d="M318.21,332a2.21,2.21,0,1,0,2.21,2.21A2.217,2.217,0,0,0,318.21,332Z" transform="translate(-308.632 -323.846)" fill="#fff"/>
      <path id="Path_1939" data-name="Path 1939" d="M18.21,181a2.21,2.21,0,1,0,2.21,2.21A2.217,2.217,0,0,0,18.21,181Z" transform="translate(-16 -176.555)" fill="#fff"/>
    </g>
    <g id="Group_2734" data-name="Group 2734" transform="translate(2.21)">
      <path id="Path_1940" data-name="Path 1940" d="M408.21,334.21a2.217,2.217,0,0,1-2.21,2.21V332A2.217,2.217,0,0,1,408.21,334.21Z" transform="translate(-398.632 -323.846)" fill="#fff"/>
      <path id="Path_1941" data-name="Path 1941" d="M406,4.421V0a2.21,2.21,0,0,1,0,4.421Z" transform="translate(-398.632)" fill="#fff"/>
      <path id="Path_1942" data-name="Path 1942" d="M108.21,183.21a2.217,2.217,0,0,1-2.21,2.21V181A2.217,2.217,0,0,1,108.21,183.21Z" transform="translate(-106 -176.555)" fill="#fff"/>
    </g>
  </g>
</svg>
